<svg width="100" height="100" viewBox="0 0 100 100" fill="none" xmlns="http://www.w3.org/2000/svg">
<path d="M29.7712 0.892853C13.9195 0.892853 0.892822 13.9021 0.892822 29.7712V70.2288C0.892822 86.0805 13.902 99.1071 29.7712 99.1071H70.2288C86.0805 99.1071 99.1071 86.0979 99.1071 70.2288V29.7712C99.1071 13.9195 86.0979 0.892853 70.2288 0.892853H29.7712ZM29.7712 9.82142H70.2288C81.2674 9.82142 90.1785 18.7326 90.1785 29.7712V70.2288C90.1785 81.2674 81.2674 90.1786 70.2288 90.1786H29.7712C18.7325 90.1786 9.82139 81.2674 9.82139 70.2288V29.7712C9.82139 18.7326 18.7325 9.82142 29.7712 9.82142ZM76.3672 19.587C74.1176 19.587 72.3214 21.3832 72.3214 23.6328C72.3214 25.8824 74.1176 27.6786 76.3672 27.6786C78.6167 27.6786 80.4129 25.8824 80.4129 23.6328C80.4129 21.3832 78.6167 19.587 76.3672 19.587ZM50 23.2143C35.2643 23.2143 23.2143 35.2644 23.2143 50C23.2143 64.7356 35.2643 76.7857 50 76.7857C64.7356 76.7857 76.7857 64.7356 76.7857 50C76.7857 35.2644 64.7356 23.2143 50 23.2143ZM50 32.1429C59.9225 32.1429 67.8571 40.0774 67.8571 50C67.8571 59.9226 59.9225 67.8571 50 67.8571C40.0774 67.8571 32.1428 59.9226 32.1428 50C32.1428 40.0774 40.0774 32.1429 50 32.1429Z" fill="#DBD4D4"/>
</svg>
