<svg width="97" height="96" viewBox="0 0 97 96" fill="none" xmlns="http://www.w3.org/2000/svg">
<path d="M48.8928 0.73999C22.3848 0.73999 0.892822 22.232 0.892822 48.74C0.892822 71.232 16.3808 90.052 37.2608 95.26C37.0368 94.612 36.8928 93.86 36.8928 92.928V84.724C34.9448 84.724 31.6808 84.724 30.8608 84.724C27.5768 84.724 24.6568 83.312 23.2408 80.688C21.6688 77.772 21.3968 73.312 17.5008 70.584C16.3448 69.676 17.2248 68.64 18.5568 68.78C21.0168 69.476 23.0568 71.164 24.9768 73.668C26.8888 76.176 27.7888 76.744 31.3608 76.744C33.0928 76.744 35.6848 76.644 38.1248 76.26C39.4368 72.928 41.7048 69.86 44.4768 68.412C28.4928 66.768 20.8648 58.816 20.8648 48.02C20.8648 43.372 22.8448 38.876 26.2088 35.088C25.1048 31.328 23.7168 23.66 26.6328 20.74C33.8248 20.74 38.1728 25.404 39.2168 26.664C42.8008 25.436 46.7368 24.74 50.8728 24.74C55.0168 24.74 58.9688 25.436 62.5608 26.672C63.5928 25.42 67.9448 20.74 75.1528 20.74C78.0808 23.664 76.6768 31.364 75.5608 35.116C78.9048 38.896 80.8728 43.38 80.8728 48.02C80.8728 58.808 73.2568 66.756 57.2968 68.408C61.6888 70.7 64.8928 77.14 64.8928 81.992V92.928C64.8928 93.344 64.8008 93.644 64.7528 94C83.4568 87.444 96.8928 69.684 96.8928 48.74C96.8928 22.232 75.4008 0.73999 48.8928 0.73999Z" fill="#DBD4D4"/>
</svg>
