<svg width="101" height="100" viewBox="0 0 101 100" fill="none" xmlns="http://www.w3.org/2000/svg">
<path d="M88.9881 0H12.7976C6.22619 0 0.892853 5.33333 0.892853 11.9048V88.0952C0.892853 94.6667 6.22619 100 12.7976 100H88.9881C95.5595 100 100.893 94.6667 100.893 88.0952V11.9048C100.893 5.33333 95.5595 0 88.9881 0ZM31.8452 38.0952V83.3333H17.5595V38.0952H31.8452ZM17.5595 24.9286C17.5595 21.5952 20.4167 19.0476 24.7024 19.0476C28.9881 19.0476 31.6786 21.5952 31.8452 24.9286C31.8452 28.2619 29.1786 30.9524 24.7024 30.9524C20.4167 30.9524 17.5595 28.2619 17.5595 24.9286ZM84.2262 83.3333H69.9405C69.9405 83.3333 69.9405 61.2857 69.9405 59.5238C69.9405 54.7619 67.5595 50 61.6071 49.9048H61.4167C55.6548 49.9048 53.2738 54.8095 53.2738 59.5238C53.2738 61.6905 53.2738 83.3333 53.2738 83.3333H38.9881V38.0952H53.2738V44.1905C53.2738 44.1905 57.869 38.0952 67.1071 38.0952C76.5595 38.0952 84.2262 44.5952 84.2262 57.7619V83.3333Z" fill="#DBD4D4"/>
</svg>
